inDegrees=no
num_controls=7
num_derivatives=13
num_iterations=151
num_multipliers=7
num_parameters=0
num_slacks=7
num_states=26
objective=5.184530
objective_accelerations=0.515382
objective_balance=0.051423
objective_effort=0.283393
objective_height=4.270162
objective_ligament=0.064171
solver_duration=1684.030129
status=Solve_Succeeded
success=true
DataType=double
version=3
OpenSimVersion=4.4-2022-07-23-0e9fedc
endheader
time	/jointset/ground_pelvis/pelvis_tilt/value	/jointset/ground_pelvis/pelvis_tx/value	/jointset/ground_pelvis/pelvis_ty/value	/jointset/hip_l/hip_flexion_l/value	/jointset/hip_l/hip_adduction_l/value	/jointset/hip_l/hip_rotation_l/value	/jointset/back/lumbar_extension/value	/jointset/patellofemoral_l/patellar_flexion_l/value	/jointset/knee_l/knee_flexion_l/value	/jointset/knee_l/knee_adduction_l/value	/jointset/knee_l/knee_rotation_l/value	/jointset/ankle_l/ankle_angle_l/value	/jointset/subtalar_l/subtalar_angle_l/value	/jointset/ground_pelvis/pelvis_tilt/speed	/jointset/ground_pelvis/pelvis_tx/speed	/jointset/ground_pelvis/pelvis_ty/speed	/jointset/hip_l/hip_flexion_l/speed	/jointset/hip_l/hip_adduction_l/speed	/jointset/hip_l/hip_rotation_l/speed	/jointset/back/lumbar_extension/speed	/jointset/patellofemoral_l/patellar_flexion_l/speed	/jointset/knee_l/knee_flexion_l/speed	/jointset/knee_l/knee_adduction_l/speed	/jointset/knee_l/knee_rotation_l/speed	/jointset/ankle_l/ankle_angle_l/speed	/jointset/subtalar_l/subtalar_angle_l/speed	/forceset/tau_hip_flexion_l	/forceset/tau_hip_adduction_l	/forceset/tau_hip_rotation_l	/forceset/tau_knee_flexion_l	/forceset/tau_ankle_angle_l	/forceset/tau_subtalar_angle_l	/forceset/tau_lumbar_extension	lambda_cid13_p0	lambda_cid13_p1	lambda_cid13_p2	lambda_cid13_p3	lambda_cid13_p4	lambda_cid13_p5	lambda_cid14_p0	/jointset/ground_pelvis/pelvis_tilt/accel	/jointset/ground_pelvis/pelvis_tx/accel	/jointset/ground_pelvis/pelvis_ty/accel	/jointset/hip_l/hip_flexion_l/accel	/jointset/hip_l/hip_adduction_l/accel	/jointset/hip_l/hip_rotation_l/accel	/jointset/back/lumbar_extension/accel	/jointset/patellofemoral_l/patellar_flexion_l/accel	/jointset/knee_l/knee_flexion_l/accel	/jointset/knee_l/knee_adduction_l/accel	/jointset/knee_l/knee_rotation_l/accel	/jointset/ankle_l/ankle_angle_l/accel	/jointset/subtalar_l/subtalar_angle_l/accel	gamma_cid13_p0	gamma_cid13_p1	gamma_cid13_p2	gamma_cid13_p3	gamma_cid13_p4	gamma_cid13_p5	gamma_cid14_p0
1	-0.6822530332233173	-0.1481056852827726	0.6366472902676669	1.771556741768584	-0.4713716856524231	-0.116425328491735	-0.2617970866194864	1.003651054916646	1.003651054916825	-0.1724021283692657	-0.174530684388617	-0.02087017977893793	-0.1358264336544674	-0.01641809534433705	0.0118849076070028	0.004087858490656859	-0.002380191107739896	-0.0003218407011226096	0.00171614022067879	-1.570721402843745e-06	0.001484810629099913	0.001484810629099497	-0.001242953834312079	2.863602669590151e-06	0.02114566838655824	0.009297436078026583	-0.38793411125072	0.02449896579116844	-0.001499029272611409	-0.1919475695539582	0.1151612470198835	0.0760791420424841	0.3174129818417203	-3.39868468626628	-33.75715811677891	6.543456388245296	-4.994702183665762	-627.9720173998033	-51.86352929127057	-16.61099076489337	2.298093888841229	0.6373708658770298	1.526309716288555	-6.476605581367712	0.2061963461656985	-1.861793077972351	-0.02599887365354487	-3.754595271290933	-3.754595271291008	-0.07085045679250311	-0.01393319434244912	0.003481288527611454	0.2391692789288343	3.199470876114619e-09	8.664796382629771e-09	-6.674082453136842e-09	1.70384960529216e-09	-1.842859191751412e-09	8.901021608906045e-09	2.026645899527946e-09
1.01	-0.6823035415795417	-0.1479550702993231	0.6367643231961753	1.771210750208225	-0.4713638799924635	-0.1165012796998459	-0.2617970996104301	1.003478213200148	1.003478213200537	-0.1724167522845461	-0.1745306379076224	-0.02065850840434351	-0.135720737840487	0.006314793407672375	0.0182393418575508	0.01931469933371844	-0.06680980249754499	0.001883775873080125	-0.01690437769784159	-8.535939156283204e-07	-0.03605044823495757	-0.03605044823496466	-0.001682481933768926	6.10885363065081e-06	0.02118494736085779	0.01184107056814916	-0.387778164773301	0.02457267807045483	-0.001491235867527087	-0.1918442909065068	0.114942081355495	0.07606338457559945	0.3173003252451242	-3.455319900603919	-33.74312801378564	6.544337640883012	-5.025236391780956	-627.8131104101568	-51.88315059900849	-16.61880361205665	2.26064137894954	0.6346674233405843	1.520265751018726	-6.424891657767287	0.2278664146809959	-1.861882326201021	0.01313308730147412	-3.752584827986897	-3.752584827987903	-0.03060313334455568	0.00740622084683661	0.003602619949387686	0.2618615280233384	1.17281298042682e-10	1.039140940248965e-09	3.452007480998415e-09	-9.603531040296154e-10	-6.630055721206713e-09	2.261750010165202e-08	-2.513180822919599e-09
1.02	-0.6821267700461289	-0.147740873429629	0.6370335034296519	1.770220711985975	-0.471333993746435	-0.1167633763225992	-0.2617971002138479	1.002930100168207	1.002930100168797	-0.17243579131025	-0.1745305684068962	-0.02044655395638909	-0.1355896254828114	0.02903788258241459	0.02460128485593714	0.03451731948487453	-0.1311895234865953	0.004094276512609122	-0.03551294271272792	9.067876232666329e-07	-0.07356945245996951	-0.07356945245998256	-0.002125975906111497	7.467545848342398e-06	0.02120228305789107	0.01438074481704716	-0.3876222182958529	0.02464639034978346	-0.001483442462720254	-0.1917410122590286	0.1147229156911228	0.0760476271087694	0.317187668648546	-3.515981920708617	-33.72944024693224	6.546469917079389	-5.068491499733566	-627.7315958465327	-51.90591699120963	-16.64334451768033	2.296133973387785	0.6388726154446787	1.521465577907434	-6.466627501216698	0.207173159230927	-1.85940249724561	-0.02579022284319175	-3.751344343481775	-3.751344343481704	-0.07164363136961543	-0.01431050609120179	-0.0009073669256658683	0.2383772306838844	-2.949572996525788e-09	-6.505755016503706e-09	1.335429166297367e-08	-3.58012378254207e-09	-1.128244100976962e-08	3.574158856218304e-08	-6.989105625684346e-09
1.03	-0.6817228137434871	-0.1474630055113994	0.6374545265761212	1.76858725387175	-0.4712819453652292	-0.117211469856438	-0.2617970912326453	1.002006963487036	1.002006963487089	-0.1724592499147501	-0.1745305107888274	-0.02023456200521323	-0.1354331140458718	0.05175106232394772	0.03097485305840949	0.04967704376983952	-0.195479937653324	0.006320282168923871	-0.05410030821155847	7.380765550169732e-07	-0.1110469912692054	-0.1110469912691962	-0.002561963169522231	3.368744370928993e-06	0.02118991242678783	0.01692394793483519	-0.3870951505749967	0.0247287784970341	-0.001478898732333853	-0.1916153551916844	0.1144803012866012	0.07603190520753991	0.3168238064504609	-3.566915416086172	-33.72039280635927	6.552678967515898	-5.122111064354247	-627.3632791447759	-51.98818309687484	-16.6846495814117	2.258561099546654	0.636980807081364	1.511682733022732	-6.406925939837463	0.2310486942986683	-1.857592859916921	0.01284709830536338	-3.744322453727828	-3.74432245372459	-0.02901346170233084	0.006444352299455646	-0.002330930246382156	0.2626522036663747	-6.01627080860953e-09	-1.404982689687241e-08	2.325429211278402e-08	-6.199441072985042e-09	-1.593345067342545e-08	4.885963222646697e-08	-1.146437836804417e-08
1.04	-0.6810917954184256	-0.1471213255342586	0.6380268383412832	1.766311556102772	-0.4712074900423663	-0.1178452749019792	-0.2617970884798607	1.000709378656955	1.000709378656468	-0.1724869558295007	-0.1745305133748443	-0.0200228795641534	-0.1352510985074863	0.07445028706588847	0.03736369663816202	0.06477504322401416	-0.2596374544375432	0.008575664843903331	-0.07265524505899518	-3.388927667730324e-07	-0.1484590822417805	-0.1484590822417493	-0.002975437947949012	-4.573278087240832e-06	0.0211403810339385	0.01948156510622919	-0.3865680828541108	0.02481116664433486	-0.001474355002131705	-0.1914896981243195	0.1142376868820984	0.0760161833063734	0.3164599442523905	-3.621916978576784	-33.71167575639051	6.560131740290844	-5.18812433824009	-627.0729175507535	-52.0736948497074	-16.74268602160573	2.293342973469318	0.6419276909006899	1.509120611749343	-6.440048024714743	0.2130485629638497	-1.852916766966894	-0.02597187449398806	-3.738254776149592	-3.738254776149537	-0.06714113437279304	-0.01507915028741656	-0.008339519274913342	0.2412600414050478	-9.080554650521747e-09	-2.10845957557285e-08	3.37317572303576e-08	-8.466440101059618e-09	-2.047908806054052e-08	6.137832508862628e-08	-1.573484152829432e-08
1.05	-0.6802338470725083	-0.1467156653902936	0.6387497600323404	1.763395063922498	-0.4711103192261949	-0.1186644165045032	-0.2617971117688963	0.9990380845066769	0.999038084506693	-0.1725186967856731	-0.1745306356448777	-0.01981190603337345	-0.1350434322033139	0.09713604818066726	0.04377221760002047	0.07979283181131101	-0.3236252056509957	0.01086651823699173	-0.0911611330251506	-3.713974065437143e-06	-0.1857809664030413	-0.1857809664030162	-0.003368594045256643	-1.983797433552506e-05	0.02104558794704692	0.02205614357018686	-0.3856799501293799	0.02490224595452377	-0.001472441470105239	-0.1913357788409577	0.1139659929753522	0.07600116429145705	0.3158530631448805	-3.669173255469131	-33.70738542822954	6.571448854477325	-5.263759958316117	-626.5000164851914	-52.21729887637985	-16.81748655132984	2.255689936929509	0.6408949482260543	1.49563345561074	-6.372775379733199	0.2383088392738102	-1.847646813343029	0.01257041581927066	-3.7263339815916	-3.726333981592566	-0.0247863086831313	0.00526905149996474	-0.01135961387736678	0.2662232896252623	-1.214476305586611e-08	-2.810344889516232e-08	4.422726811879878e-08	-1.072242918343518e-08	-2.502143256401369e-08	7.387828823821921e-08	-1.999890438910356e-08
